<?xml version="1.0" encoding="utf-8"?><!-- Uploaded to: SVG Repo, www.svgrepo.com, Generator: SVG Repo Mixer Tools -->
<svg fill="#000000" width="800px" height="800px" viewBox="0 0 24 24" id="first-aid-kit" data-name="Line Color" xmlns="http://www.w3.org/2000/svg" class="icon line-color"><path id="secondary" d="M12,16V12m2,2H10" style="fill: none; stroke: rgb(44, 169, 188); stroke-linecap: round; stroke-linejoin: round; stroke-width: 2;"></path><path id="primary" d="M21,19V9a1,1,0,0,0-1-1H4A1,1,0,0,0,3,9V19a1,1,0,0,0,1,1H20A1,1,0,0,0,21,19ZM16,8V5a1,1,0,0,0-1-1H9A1,1,0,0,0,8,5V8Z" style="fill: none; stroke: rgb(0, 0, 0); stroke-linecap: round; stroke-linejoin: round; stroke-width: 2;"></path></svg>