<?xml version="1.0" encoding="iso-8859-1"?>
<!-- Uploaded to: SVG Repo, www.svgrepo.com, Generator: SVG Repo Mixer Tools -->
<svg height="800px" width="800px" version="1.1" id="Layer_1" xmlns="http://www.w3.org/2000/svg" xmlns:xlink="http://www.w3.org/1999/xlink" 
	 viewBox="0 0 512 512" xml:space="preserve">
<path style="fill:#CF8F3D;" d="M459.739,315.738L459.739,315.738L512,368.001l-47.57,0.431l-0.431,47.57l-47.568,0.43l-0.43,47.569
	l-47.573,0.43L368.003,512l-55.958-55.953l0.001-0.001L55.953,199.953L0,143.999l47.57-0.429L48.001,96l47.565-0.431L95.996,48
	l47.57-0.431L143.997,0l55.958,55.954L459.739,315.738z"/>
<path style="fill:#B76700;" d="M416.432,416.432L416.002,464l-47.573,0.431L368.003,512l-55.958-55.953l0.001-0.001L55.953,199.953
	L0,143.999l47.57-0.429L48.001,96l47.565-0.431v-0.003L416.432,416.432z"/>
<path style="fill:#C13421;" d="M52.253,196.253L196.255,52.254l263.493,263.493l-144.003,144L52.253,196.253L52.253,196.253z"/>
<path style="fill:#981700;" d="M52.253,196.253l72.002-71.999l263.493,263.493l-72.002,71.999L52.253,196.253L52.253,196.253z"/>
<path style="fill:#FFFFFF;" d="M284.485,200.213c3.535,3.535,3.535,9.266,0,12.8c-3.535,3.535-9.265,3.535-12.8,0l-70.656-70.656
	c-2.986-2.986-7.847-2.987-10.833-0.001l-50.159,50.158c-3.535,3.535-9.265,3.535-12.8,0c-3.534-3.535-3.534-9.266,0-12.8
	l50.16-50.159c10.044-10.042,26.387-10.041,36.432,0.001L284.485,200.213z M316.18,231.907l-3.558-3.562
	c-3.533-3.536-9.264-3.539-12.8-0.006c-0.001,0.001-0.001,0.001-0.002,0.002c-3.533,3.534-3.535,9.263-0.002,12.798l3.558,3.562
	c3.533,3.536,9.264,3.538,12.8,0.006c0.001-0.001,0.001-0.002,0.002-0.003C319.711,241.172,319.713,235.442,316.18,231.907z"/>
</svg>