<?xml version="1.0" encoding="iso-8859-1"?>
<!-- Uploaded to: SVG Repo, www.svgrepo.com, Generator: SVG Repo Mixer Tools -->
<svg height="800px" width="800px" version="1.1" id="Layer_1" xmlns="http://www.w3.org/2000/svg" xmlns:xlink="http://www.w3.org/1999/xlink" 
	 viewBox="0 0 512.001 512.001" xml:space="preserve">
<path style="fill:#BDCED4;" d="M188.136,94.005H52.883c-16.67,16.67-26.015,26.015-42.684,42.684v303.417
	c16.67,16.67,26.015,26.015,42.684,42.684h135.252c16.67-16.67,26.015-26.015,42.684-42.684V136.69
	C214.15,120.02,204.804,110.675,188.136,94.005z"/>
<path style="fill:#FF7731;" d="M207.693,94.005H33.326c-12.772,0-23.127-10.354-23.127-23.127l0,0
	c0-23.015,18.656-41.671,41.671-41.671h137.278c23.015,0,41.671,18.656,41.671,41.671l0,0
	C230.819,83.651,220.465,94.005,207.693,94.005z"/>
<path style="fill:#8C4F39;" d="M459.117,94.005H323.865c-16.67,16.67-26.015,26.015-42.684,42.684v303.417
	c16.67,16.67,26.015,26.015,42.684,42.684h135.252c16.67-16.67,26.015-26.015,42.684-42.684V136.69
	C485.131,120.02,475.786,110.675,459.117,94.005z"/>
<path style="fill:#FF7731;" d="M478.674,94.005H304.308c-12.772,0-23.127-10.354-23.127-23.127l0,0
	c0-23.015,18.656-41.671,41.671-41.671H460.13c23.014,0,41.671,18.656,41.671,41.671l0,0
	C501.801,83.651,491.447,94.005,478.674,94.005z"/>
<path d="M241.018,70.879c0-28.602-23.268-51.87-51.869-51.87H51.87C23.268,19.008,0,42.278,0,70.879
	c0,16.772,12.455,30.682,28.601,32.985L2.987,129.477C1.075,131.39,0,133.984,0,136.69v303.417c0,2.705,1.075,5.3,2.987,7.212
	l42.685,42.685c1.913,1.912,4.507,2.987,7.212,2.987h135.252c2.705,0,5.299-1.075,7.212-2.987l42.684-42.685
	c1.912-1.912,2.987-4.507,2.987-7.212V136.69c0-2.705-1.075-5.299-2.987-7.212l-25.613-25.614
	C228.562,101.562,241.018,87.651,241.018,70.879z M220.62,435.881l-36.709,36.71H57.108l-36.71-36.71V140.914l36.71-36.709H183.91
	l36.709,36.709v294.967H220.62z M33.326,83.806c-7.128,0-12.927-5.799-12.927-12.926c0-17.354,14.119-31.472,31.472-31.472h137.278
	c17.354,0,31.471,14.119,31.471,31.472c0,7.128-5.799,12.927-12.927,12.927H33.326V83.806z"/>
<path d="M84.253,147.06c-5.632,0-10.199,4.566-10.199,10.199V422.62c0,5.633,4.567,10.199,10.199,10.199s10.199-4.566,10.199-10.199
	V157.259C94.452,151.628,89.886,147.06,84.253,147.06z"/>
<path d="M156.765,214.945c-5.632,0-10.199,4.566-10.199,10.199v197.477c0,5.633,4.567,10.199,10.199,10.199
	s10.199-4.566,10.199-10.199V225.144C166.964,219.511,162.398,214.945,156.765,214.945z"/>
<path d="M156.765,147.06c-5.632,0-10.199,4.566-10.199,10.199v15.427c0,5.633,4.567,10.199,10.199,10.199
	s10.199-4.566,10.199-10.199v-15.427C166.964,151.628,162.398,147.06,156.765,147.06z"/>
<path d="M70.992,47.733H55.757c-5.632,0-10.199,4.566-10.199,10.199s4.567,10.199,10.199,10.199h15.236
	c5.632,0,10.199-4.566,10.199-10.199S76.625,47.733,70.992,47.733z"/>
<path d="M185.262,47.733h-15.236c-5.632,0-10.199,4.566-10.199,10.199s4.567,10.199,10.199,10.199h15.236
	c5.632,0,10.199-4.566,10.199-10.199S190.894,47.733,185.262,47.733z"/>
<path d="M128.127,47.733h-15.236c-5.632,0-10.199,4.566-10.199,10.199s4.567,10.199,10.199,10.199h15.236
	c5.632,0,10.199-4.566,10.199-10.199S133.759,47.733,128.127,47.733z"/>
<path d="M483.399,103.864C499.545,101.562,512,87.651,512,70.879c0-28.602-23.268-51.87-51.87-51.87H322.852
	c-28.601,0-51.869,23.268-51.869,51.87c0,16.772,12.455,30.682,28.601,32.985l-25.613,25.614c-1.912,1.912-2.987,4.506-2.987,7.212
	v303.417c0,2.705,1.075,5.298,2.987,7.212l42.684,42.685c1.912,1.912,4.507,2.987,7.212,2.987h135.252
	c2.705,0,5.298-1.075,7.212-2.987l42.685-42.685c1.912-1.912,2.987-4.507,2.987-7.212V136.69c0-2.705-1.075-5.299-2.987-7.212
	L483.399,103.864z M304.308,83.806c-7.128,0-12.927-5.799-12.927-12.927c0-17.354,14.118-31.472,31.471-31.472h137.278
	c17.354,0,31.472,14.119,31.472,31.472c0,7.128-5.799,12.927-12.927,12.927H304.308z M491.602,435.881l-36.71,36.71H328.09
	l-36.709-36.71V140.914l36.709-36.709h126.802l36.71,36.709V435.881z"/>
<path d="M355.235,147.06c-5.632,0-10.199,4.566-10.199,10.199V422.62c0,5.633,4.567,10.199,10.199,10.199
	c5.632,0,10.199-4.566,10.199-10.199V157.259C365.434,151.628,360.867,147.06,355.235,147.06z"/>
<path d="M427.747,214.945c-5.632,0-10.199,4.566-10.199,10.199v197.477c0,5.633,4.567,10.199,10.199,10.199
	c5.632,0,10.199-4.566,10.199-10.199V225.144C437.947,219.511,433.379,214.945,427.747,214.945z"/>
<path d="M427.747,147.06c-5.632,0-10.199,4.566-10.199,10.199v15.427c0,5.633,4.567,10.199,10.199,10.199
	c5.632,0,10.199-4.566,10.199-10.199v-15.427C437.947,151.628,433.379,147.06,427.747,147.06z"/>
<path d="M326.738,68.132h15.236c5.632,0,10.199-4.566,10.199-10.199s-4.567-10.199-10.199-10.199h-15.236
	c-5.632,0-10.199,4.566-10.199,10.199S321.106,68.132,326.738,68.132z"/>
<path d="M441.008,68.132h15.236c5.632,0,10.199-4.566,10.199-10.199s-4.567-10.199-10.199-10.199h-15.236
	c-5.632,0-10.199,4.566-10.199,10.199S435.375,68.132,441.008,68.132z"/>
<path d="M383.873,68.132h15.236c5.632,0,10.199-4.566,10.199-10.199s-4.567-10.199-10.199-10.199h-15.236
	c-5.632,0-10.199,4.566-10.199,10.199S378.241,68.132,383.873,68.132z"/>
</svg>